<svg xmlns="http://www.w3.org/2000/svg" viewBox="0 0 854.7 132.49">
  <g id="图层_2" data-name="图层 2">
    <g id="Layer_1" data-name="Layer 1">
      <circle class="cls-1" fill="#042ebe" cx="51.37" cy="79.92" r="10"/>
      <circle class="cls-1" fill="#042ebe" cx="24.93" cy="79.92" r="7"/>
      <circle class="cls-1" fill="#042ebe" cx="4" cy="79.92" r="4"/>
      <circle class="cls-1" fill="#042ebe" cx="51.37" cy="106.46" r="7"/>
      <circle class="cls-1" fill="#042ebe" cx="24.93" cy="106.46" r="4"/>
      <circle class="cls-2" fill="#03238f" cx="51.37" cy="128.49" r="4"/>
      <circle class="cls-3" fill="#3563ff" cx="51.37" cy="4" r="4"/>
      <circle class="cls-3" fill="#3563ff" cx="51.37" cy="26.03" r="7"/>
      <circle class="cls-3" fill="#3563ff" cx="24.93" cy="26.03" r="4"/>
      <circle class="cls-3" fill="#3563ff" cx="51.37" cy="52.58" r="10"/>
      <circle class="cls-3" fill="#3563ff" cx="24.93" cy="52.58" r="7"/>
      <circle class="cls-3" fill="#3563ff" cx="4" cy="52.58" r="4"/>
      <circle class="cls-3" fill="#3563ff" cx="81.12" cy="4" r="4"/>
      <circle class="cls-1" fill="#042ebe" cx="107.56" cy="26.03" r="4"/>
      <circle class="cls-3" fill="#3563ff" cx="81.12" cy="26.03" r="7"/>
      <circle class="cls-1" fill="#042ebe" cx="128.49" cy="52.58" r="4"/>
      <circle class="cls-1" fill="#042ebe" cx="107.56" cy="52.58" r="7"/>
      <circle class="cls-1" fill="#042ebe" cx="81.12" cy="52.58" r="10"/>
      <circle class="cls-2" fill="#03238f" cx="128.49" cy="79.92" r="4"/>
      <circle class="cls-2" fill="#03238f" cx="107.56" cy="79.92" r="7"/>
      <circle class="cls-1" fill="#042ebe" cx="81.12" cy="79.92" r="10"/>
      <circle class="cls-2" fill="#03238f" cx="107.56" cy="106.46" r="4"/>
      <circle class="cls-2" fill="#03238f" cx="81.12" cy="106.46" r="7"/>
      <circle class="cls-2" fill="#03238f" cx="81.12" cy="128.49" r="4"/>
      <path class="cls-3" fill="#3563ff" d="M351.65 82.67V37.16a22.33 22.33 0 0 1 .12-3.72c.44-2.6 2-4.38 4.69-4.41 2.84 0 4.57 1.69 5 4.53a19.53 19.53 0 0 1 .08 2.89v59.64c0 3.05-.13 5.91-3.83 6.83s-6-.69-7.81-3.79c-8-13.38-16.07-26.68-24.13-40-2.05-3.4-4.14-6.78-6.26-10.25-1.38 1.19-.77 2.51-.77 3.63-.05 14.22 0 28.44 0 42.66a23.85 23.85 0 0 1-.24 4.12 4.72 4.72 0 0 1-9.19.26 20.08 20.08 0 0 1-.33-4.11V36.62c0-3.34.11-6.59 4.12-7.52 3.76-.87 6.13 1 8.06 4.22 9.85 16.56 19.86 33 29.81 49.53zM506 49.22v47.87c0 3.33-1.24 5.94-4.81 6s-5-2.48-5-5.83V34.72c0-2.82 1.18-4.91 4-5.56 3.07-.72 5.7.08 7.45 3q7 11.72 14.07 23.39c5.51 9.13 11 18.25 17.23 27.17V44.37 36.5c0-5.06 1.77-7.63 5.08-7.51s4.81 2.57 4.81 7.34v61.3c0 2.42-.79 4.36-3.28 5.15-2.71.86-5.26.63-7.08-1.81-1.23-1.65-2.22-3.48-3.29-5.25L507 49.05z"/>
      <path class="cls-1" fill="#042ebe" d="M794.13 66.43v29c0 5.19-1.54 7.63-4.82 7.72s-5.07-2.61-5.08-8c0-7-.1-14.08.05-21.12.05-2.45-.48-3.35-3.15-3.3q-14.49.25-29 0c-2.62 0-3.26.81-3.21 3.29.15 7.17.08 14.35 0 21.53a15 15 0 0 1-.56 4.48 4.35 4.35 0 0 1-4.5 3 4.47 4.47 0 0 1-4.5-3.57 12.33 12.33 0 0 1-.25-2.88V35.3c0-4.08 1.89-6.6 4.84-6.37 3.83.29 5 3 5 6.38 0 7.73.1 15.46 0 23.19 0 2.47.6 3.37 3.23 3.33 9.66-.15 19.32-.16 29 0 2.74 0 3.16-1 3.12-3.37-.13-7.59-.08-15.18 0-22.77 0-4.28 1.95-6.82 5-6.79s4.88 2.46 4.89 6.83c-.04 10.27-.06 20.49-.06 30.7z"/>
      <path class="cls-3" fill="#3563ff" d="M585.4 103.6c-12.62-.17-21.42-5.68-24.86-14.81-1.1-2.93-1.57-5.77 1.84-7.49 2.84-1.43 5.28 0 7 3.74 4.21 9.17 16.79 12.45 25 6.52 6.62-4.8 6.39-13.57-.48-18-3.56-2.29-7.68-3-11.65-4.05-3-.84-6.16-1.51-9.14-2.57-7.23-2.58-12.52-7.11-13.42-15.21-1-8.57 2.71-15 10-19.41 10-6.08 24.4-4.39 31.68 3.63a18.52 18.52 0 0 1 4.58 8.67c.58 2.73.32 5.42-3.07 6.23-3 .72-5.16-.45-6.11-3.45-1.79-5.65-5.76-8.56-11.5-9.23a16.25 16.25 0 0 0-10.7 2.33 9.83 9.83 0 0 0-5.06 9.31c.2 4.11 2.69 6.47 6.18 8 3.67 1.65 7.65 2.27 11.51 3.24a48.51 48.51 0 0 1 10.53 3.6c6.87 3.55 11.33 9 11.34 16.94S605.54 96 598.5 100.16a24.64 24.64 0 0 1-13.1 3.44zM706.46 103.6c-12.67-.16-21.47-5.65-24.93-14.77-1.11-2.92-1.6-5.76 1.78-7.51 2.82-1.46 5.32-.06 7 3.69 4.23 9.2 16.74 12.5 24.95 6.58 6.78-4.88 6.4-13.82-.76-18.2-3.48-2.13-7.44-2.86-11.3-3.83a71.53 71.53 0 0 1-10.67-3.17c-6.69-2.84-11.28-7.46-12-15-.73-8 2.54-14.18 9.29-18.55 10.3-6.66 25.15-5.11 32.64 3.42a18.38 18.38 0 0 1 4.33 8.35c.57 2.71.37 5.42-3 6.26-3 .74-5.29-.37-6.11-3.4-2.54-9.39-13.51-11-20.38-7.9-4.22 1.93-6.93 4.94-6.92 9.83 0 4.17 2.37 7.27 7.28 9 3.37 1.16 6.89 1.92 10.37 2.78a48.94 48.94 0 0 1 10.16 3.41c7.24 3.59 11.86 9.16 11.75 17.5a20.27 20.27 0 0 1-11.19 18.52 24.49 24.49 0 0 1-12.29 2.99zM670.82 57.88c0 6.91.21 13.82 0 20.71-.55 15-11.82 25.24-27.27 25-14.82-.25-25.78-10.91-25.95-25.54-.16-14.22-.06-28.45 0-42.68 0-4 1.89-6.42 4.87-6.39s5 2.46 5 6.41c.06 14.09-.13 28.18.1 42.26C627.7 90.41 640.6 98 652 92.23c5.35-2.68 8.63-7.06 8.74-13.07.27-13.67.2-27.34.27-41 0-1.38 0-2.77.1-4.14.29-3 1.88-5.09 5-5s4.69 2.14 4.71 5.23v23.62zM442.36 65.81V37.22c0-6.42 1.28-7.65 7.83-7.65h29.41c4.45 0 6.6 1.52 6.38 4.62-.3 4.07-3.22 4.59-6.53 4.57-7.87 0-15.75.1-23.61-.08-2.77-.06-3.9.53-3.76 3.57.25 5.51.2 11 0 16.57-.08 2.53.64 3.34 3.23 3.27 6.76-.18 13.53-.09 20.3 0 4.26 0 6.53 1.71 6.32 4.78-.26 3.88-3 4.44-6.19 4.42-6.77-.05-13.53.08-20.3-.07-2.44-.05-3.45.54-3.36 3.19.18 5.38.17 10.77 0 16.15-.07 2.47.92 3 3.15 2.94 8.42-.11 16.85-.05 25.27 0 4.61 0 7.15 1.64 6.84 4.67-.44 4.25-3.62 4.55-7 4.53-10.36-.06-20.71 0-31.07 0-5.25 0-6.85-1.61-6.88-7-.06-10.01-.03-19.95-.03-29.89z"/>
      <path class="cls-1" fill="#042ebe" d="M819.23 60.09l19.08-24.88c1-1.31 2-2.64 3.06-3.91 2.11-2.53 4.62-3.06 7.21-.91s2.16 4.47.28 6.91c-6.68 8.62-13.22 17.34-20 25.87-1.74 2.18-1.71 3.42.21 5.44 7.82 8.19 15.44 16.57 23.13 24.88 1.42 1.53 2.85 3.07 2.44 5.43a4.93 4.93 0 0 1-3.27 3.92c-2.37 1-3.94-.26-5.42-1.85q-12-12.89-24-25.79c-.92-1-1.66-2.15-2.48-3.23l-1.07.54v22.55c0 5.66-1.45 8.07-4.83 8.13s-5-2.47-5-8v-58c0-1.1 0-2.21.1-3.31.25-2.88 1.86-4.77 4.71-4.79 3 0 4.86 1.91 4.9 5 .09 7.59.06 15.19.08 22.79v2.82z"/>
      <path class="cls-3" fill="#3563ff" d="M408.72 103.59a36.73 36.73 0 0 1-35.23-25.78 37.89 37.89 0 0 1 13.8-42.31c12.82-9.12 30.6-9.08 43 .1.55.41 1.08.85 1.62 1.28 2.59 2.08 3.76 4.67 1.59 7.52s-5 2.34-7.6.27a27.74 27.74 0 0 0-13.36-6.11c-14.55-2.21-27.84 7.61-30.49 22.66s6.76 29.47 21 32.3a25.72 25.72 0 0 0 21.48-4.84l1-.75c2.65-2.07 5.4-3.07 8-.09 2.09 2.38 1.21 5.38-2.13 8.11a35.5 35.5 0 0 1-22.68 7.64zM239.36 45.86a4.38 4.38 0 0 0 2.08-4 32.36 32.36 0 0 0-4.48 4.9 5 5 0 0 0 2.4-.9zM236.89 86.36a32.17 32.17 0 0 0 4.65 5 5.15 5.15 0 0 0-1-3 4.23 4.23 0 0 0-3.65-2zM226.8 91.79a26 26 0 0 1-28.1-3.29c-9.72-7.81-13-22.07-7.73-33.78A26.83 26.83 0 0 1 220 39a24.41 24.41 0 0 1 6.88 2.21 43 43 0 0 1 6.78-7.57c-19.16-11-44.88-1.91-52.74 19.79-2.67 7.35-3 13.09-1.7 19.76 4 20.14 20.37 32.42 40.76 30.56a33.16 33.16 0 0 0 13.7-4.29 42.92 42.92 0 0 1-6.88-7.67z"/>
      <path class="cls-3" fill="#3563ff" d="M262 29.1c-20.65 0-37.1 16.64-37 37.55a37.07 37.07 0 1 0 74.14 0A37.06 37.06 0 0 0 262 29.1zm.14 65.44c-15.05.14-27.29-12.37-27.3-27.92S247 38.45 262 38.52s27.17 12.61 27.1 28.17-11.95 27.71-26.95 27.85z"/>
    </g>
  </g>
</svg>
